<svg width="360" height="640" viewBox="0 0 360 640" fill="none" xmlns="http://www.w3.org/2000/svg">
  <rect width="360" height="640" fill="#00833E"/>
  <rect x="0" y="0" width="360" height="80" fill="#006633"/>
  <rect x="20" y="100" width="320" height="120" rx="10" fill="white"/>
  <rect x="40" y="120" width="180" height="25" rx="5" fill="#00833E"/>
  <rect x="40" y="155" width="120" height="45" rx="5" fill="#F5F5F5"/>
  <rect x="180" y="155" width="140" height="45" rx="5" fill="#F5F5F5"/>
  
  <rect x="20" y="240" width="155" height="180" rx="10" fill="white"/>
  <rect x="185" y="240" width="155" height="180" rx="10" fill="white"/>
  
  <rect x="40" y="260" width="115" height="20" rx="5" fill="#00833E"/>
  <rect x="205" y="260" width="115" height="20" rx="5" fill="#00833E"/>
  
  <rect x="40" y="290" width="115" height="110" rx="5" fill="#F5F5F5"/>
  <rect x="205" y="290" width="115" height="110" rx="5" fill="#F5F5F5"/>
  
  <rect x="20" y="440" width="320" height="180" rx="10" fill="white"/>
  <rect x="40" y="460" width="200" height="25" rx="5" fill="#00833E"/>
  
  <rect x="40" y="495" width="280" height="1" fill="#E0E0E0"/>
  <rect x="40" y="515" width="280" height="1" fill="#E0E0E0"/>
  <rect x="40" y="535" width="280" height="1" fill="#E0E0E0"/>
  <rect x="40" y="555" width="280" height="1" fill="#E0E0E0"/>
  <rect x="40" y="575" width="280" height="1" fill="#E0E0E0"/>
  
  <rect x="40" y="500" width="80" height="10" rx="5" fill="#00833E" fill-opacity="0.7"/>
  <rect x="240" y="500" width="80" height="10" rx="5" fill="#E0E0E0"/>
  
  <rect x="40" y="520" width="80" height="10" rx="5" fill="#00833E" fill-opacity="0.7"/>
  <rect x="240" y="520" width="80" height="10" rx="5" fill="#E0E0E0"/>
  
  <rect x="40" y="540" width="80" height="10" rx="5" fill="#00833E" fill-opacity="0.7"/>
  <rect x="240" y="540" width="80" height="10" rx="5" fill="#E0E0E0"/>
  
  <rect x="40" y="560" width="80" height="10" rx="5" fill="#00833E" fill-opacity="0.7"/>
  <rect x="240" y="560" width="80" height="10" rx="5" fill="#E0E0E0"/>
  
  <text x="180" y="40" font-family="Arial" font-size="24" font-weight="bold" fill="white" text-anchor="middle">HBL Mobile Dashboard</text>
</svg>
