<svg width="360" height="640" viewBox="0 0 360 640" fill="none" xmlns="http://www.w3.org/2000/svg">
  <rect width="360" height="640" fill="#00833E"/>
  <rect x="20" y="80" width="320" height="480" rx="20" fill="white"/>
  <rect x="40" y="120" width="280" height="60" rx="10" fill="#F5F5F5"/>
  <rect x="60" y="140" width="120" height="20" rx="5" fill="#00833E"/>
  <rect x="40" y="200" width="280" height="120" rx="10" fill="#F5F5F5"/>
  <rect x="60" y="220" width="180" height="20" rx="5" fill="#00833E"/>
  <rect x="60" y="260" width="240" height="40" rx="5" fill="#E0E0E0"/>
  <rect x="40" y="340" width="130" height="100" rx="10" fill="#F5F5F5"/>
  <rect x="190" y="340" width="130" height="100" rx="10" fill="#F5F5F5"/>
  <rect x="60" y="360" width="90" height="15" rx="5" fill="#00833E"/>
  <rect x="210" y="360" width="90" height="15" rx="5" fill="#00833E"/>
  <rect x="60" y="385" width="90" height="35" rx="5" fill="#E0E0E0"/>
  <rect x="210" y="385" width="90" height="35" rx="5" fill="#E0E0E0"/>
  <rect x="40" y="460" width="280" height="80" rx="10" fill="#F5F5F5"/>
  <rect x="60" y="480" width="150" height="15" rx="5" fill="#00833E"/>
  <rect x="60" y="505" width="240" height="15" rx="5" fill="#E0E0E0"/>
  <text x="180" y="40" font-family="Arial" font-size="24" font-weight="bold" fill="white" text-anchor="middle">HBL Mobile Login</text>
</svg>
